# This file uses meters as units for non-parametric coordinates.

mtllib Room3_Ground_Bloc4_lp.mtl
g default
v 599.809204 49.955959 326.534363
v -597.854736 11.115704 57.124924
v -246.927643 27.271763 -449.631653
v 600.008179 -49.998535 -449.982727
v 599.815613 -49.624767 348.595856
v -599.657532 15.000479 -349.863251
v 105.006248 49.421860 238.363342
v -327.256439 30.822878 247.349731
v 71.475014 -32.460045 347.112549
v 568.888794 49.699696 423.653473
v 141.498032 34.138771 432.949585
v -600.194336 -24.500164 219.219986
v -446.450409 -27.852119 246.920151
v -89.610886 -49.642494 309.754333
v -121.464455 18.345345 341.643768
v 232.299210 -31.010283 449.729553
v -576.185974 49.837154 -394.032074
v 599.815308 11.622679 436.819122
v -599.148804 36.377728 -286.366882
v -562.812988 49.472244 -224.792206
v -580.350098 -49.556953 218.121262
v -585.475403 -47.331020 -90.460953
v -594.103943 8.712726 -143.468216
v -309.325378 -32.053257 255.359940
v 122.985085 -50.097542 354.829224
v -323.302643 -49.837891 226.101257
v -384.147644 49.972137 210.921875
v -540.590454 -49.978775 94.937843
v -487.523499 49.092480 201.648453
v -449.469086 -49.926952 -428.499786
v 199.352692 46.808144 406.192169
v -77.979782 48.553997 283.119843
v -395.746948 -49.998997 -449.980652
v 377.249725 50.027390 122.529175
v -599.374573 -14.795949 -94.701805
v -145.976089 -22.962809 348.556305
v 599.985718 50.032185 -449.985504
v -595.530334 -20.906286 34.944828
v -274.212311 -46.502293 340.358398
v -573.957825 38.685600 72.575638
v -427.194641 -21.758503 -449.029785
v 83.802208 42.094769 335.449097
v -552.292175 48.693005 240.599762
v -531.569946 49.795223 -429.207916
v 115.992310 -33.607773 433.279663
v -575.188049 48.263393 191.603912
v -599.582458 -19.216932 -254.916489
v -307.289978 49.186565 201.746109
v 155.434372 4.205392 450.823029
v 259.743958 46.540287 -449.982361
v 101.247658 -27.300304 375.004883
v -599.401672 28.766554 218.569519
v -333.991364 49.977798 -420.364990
v -151.382751 -49.997139 136.779678
v -410.164276 49.954182 186.999817
v -599.308350 30.728014 108.100906
v -597.196838 26.680431 -411.093781
v 33.905308 48.945229 326.081757
v -272.998901 -49.870049 256.917633
v -519.885010 49.836246 -34.263363
v 518.011230 34.502598 446.845154
v -566.859131 -29.348585 -448.100952
v -278.241730 45.324715 279.827454
v -568.396912 -44.448608 27.691856
v 360.888794 49.803814 401.541504
v 148.266647 -50.195599 428.710968
v -535.514404 49.330830 -169.868774
v -576.251221 -47.690830 -229.729218
v -566.151611 -18.562429 249.774323
v -428.289215 49.978951 -391.003021
v -229.747406 29.565685 349.712280
v -555.823975 -50.003952 -422.230164
v -298.152405 22.109013 284.986542
v 573.443420 -22.172176 448.981110
v 103.559364 36.647903 372.374817
v -564.193665 36.632698 -108.498856
v -485.341339 41.079102 -424.649719
v 570.735474 -49.752007 425.494202
v 69.592598 21.390711 349.961914
v -584.873352 -43.489292 -402.964813
v 220.401550 49.820751 -444.385406
v 600.319092 -17.179773 431.727844
v 99.899849 14.017442 400.182373
v 73.989670 -50.142422 325.579865
v 232.408585 22.884867 444.794434
v -600.758972 -0.061459 -420.002350
v -296.961212 13.976998 327.612762
v -588.779358 28.509251 -29.350956
v -209.858185 46.543930 325.171173
v -581.342468 23.677193 -113.076820
v 364.027557 5.736084 449.249817
v -522.017578 14.325100 -450.320251
v -597.121948 -37.120079 -159.130707
v -444.395416 9.079513 236.377731
v -568.210022 30.917191 -439.703766
v -198.933456 49.956535 -449.511078
v -577.960510 18.766550 248.331268
vt 0.262294 0.069074
vt 0.712746 0.201642
vt 0.464946 0.141104
vt 0.882125 0.894966
vt 0.696772 0.928520
vt 0.576548 0.849946
vt 0.202747 0.219799
vt 0.457147 0.424470
vt 0.539524 0.192103
vt 0.485861 0.932012
vt 0.661515 0.056523
vt 0.493955 0.335195
vt 0.169569 0.308167
vt 0.184986 0.279491
vt 0.267105 0.280919
vt 0.554771 0.344627
vt 0.505213 0.357462
vt 0.583966 0.811111
vt 0.868224 0.315322
vt 0.756191 0.288951
vt 0.869858 0.286430
vt 0.580849 0.599558
vt 0.655717 0.324865
vt 0.650053 0.465200
vt 0.550974 0.691050
vt 0.708569 0.118236
vt 0.895417 0.275802
vt 0.450442 0.124093
vt 0.421867 0.152475
vt 0.343551 0.135998
vt 0.545311 0.793188
vt 0.579783 0.948713
vt 0.276161 0.143418
vt 0.220787 0.110478
vt 0.200397 0.128616
vt 0.193069 0.102469
vt 0.234784 0.099666
vt 0.344966 0.292940
vt 0.242500 0.293832
vt 0.473639 0.317477
vt 0.528436 0.297394
vt 0.527578 0.277657
vt 0.444728 0.300770
vt 0.427820 0.264004
vt 0.165218 0.566253
vt 0.174825 0.366688
vt 0.657838 0.309640
vt 0.588234 0.309135
vt 0.598093 0.277129
vt 0.768382 0.310786
vt 0.679145 0.306861
vt 0.691512 0.276366
vt 0.277085 0.115281
vt 0.225791 0.146926
vt 0.577121 0.903786
vt 0.507639 0.463019
vt 0.488845 0.381360
vt 0.082367 0.308411
vt 0.104921 0.306520
vt 0.667817 0.108180
vt 0.137170 0.299076
vt 0.499124 0.545049
vt 0.477107 0.526750
vt 0.334091 0.276388
vt 0.330941 0.257825
vt 0.466269 0.283242
vt 0.426574 0.279846
vt 0.369773 0.304351
vt 0.258268 0.303466
vt 0.870452 0.271984
vt 0.197235 0.259721
vt 0.233914 0.270246
vt 0.101203 0.292871
vt 0.115647 0.204478
vt 0.555952 0.936248
vt 0.269047 0.262201
vt 0.184173 0.140423
vt 0.873920 0.329238
vt 0.187538 0.204550
vt 0.281046 0.185285
vt 0.114468 0.481153
vt 0.713756 0.314703
vt 0.519716 0.187520
vt 0.553242 0.878814
vt 0.301132 0.303910
vt 0.425747 0.306001
vt 0.107730 0.268802
vt 0.140130 0.182985
vt 0.237620 0.131444
vt 0.306208 0.175348
vt 0.897171 0.925684
vt 0.466431 0.125156
vt 0.895621 0.949112
vt 0.876903 0.969173
vt 0.902159 0.968618
vt 0.886443 0.984241
vt 0.854279 0.989709
vt 0.821982 0.978670
vt 0.733064 0.954795
vt 0.792516 0.956790
vt 0.734541 0.965921
vt 0.558415 0.820544
vt 0.587543 0.864265
vt 0.511848 0.595594
vt 0.482496 0.573727
vt 0.530247 0.606883
vt 0.949368 0.373054
vt 0.640495 0.954133
vt 0.692025 0.965743
vt 0.647683 0.973058
vt 0.534635 0.632360
vt 0.515134 0.710236
vt 0.564976 0.963254
vt 0.925091 0.806088
vt 0.914483 0.946361
vt 0.621275 0.966290
vt 0.932868 0.565945
vt 0.900630 0.847925
vt 0.920238 0.780022
vt 0.765473 0.941267
vt 0.525220 0.756724
vt 0.515647 0.803058
vt 0.509583 0.765887
vt 0.039076 0.942376
vt 0.062365 0.712300
vt 0.025450 0.727271
vt 0.111136 0.350325
vt 0.100122 0.508154
vt 0.078911 0.602895
vt 0.097489 0.488621
vt 0.058373 0.510613
vt 0.267926 0.338273
vt 0.339219 0.338800
vt 0.437994 0.343560
vt 0.444773 0.397577
vt 0.053376 0.575904
vt 0.075837 0.686505
vt 0.464207 0.406087
vt 0.453776 0.335718
vt 0.116008 0.172710
vt 0.080802 0.276009
vt 0.709518 0.252297
vt 0.267218 0.018281
vt 0.711636 0.095786
vt 0.450112 0.105437
vt 0.715629 0.081416
vt 0.208127 0.350117
vt 0.079060 0.954974
vt 0.427527 0.328808
vt 0.889531 0.291674
vt 0.888985 0.321549
vt 0.195878 0.081392
vt 0.612700 0.305399
vt 0.617099 0.320692
vt 0.644786 0.280962
vt 0.460376 0.302130
vt 0.448870 0.279801
vt 0.458432 0.261033
vt 0.450577 0.320968
vn 0.188944 -0.977132 -0.097537
vn 0.388023 0.909204 -0.150949
vn 0.984673 0.101544 0.141805
vn -0.000766 0.999993 -0.003726
vn -0.037682 0.999270 -0.006256
vn -0.006375 0.999708 0.023301
vn -0.000915 -0.998556 -0.053716
vn -0.000081 -1.000000 0.000033
vn -0.000215 0.021795 -0.999762
vn -0.004968 -0.999987 -0.000718
vn -0.005729 -0.997121 0.075612
vn 0.390210 0.920720 0.003135
vn 0.079203 0.992550 0.092587
vn -0.821952 0.569078 0.023368
vn -0.964733 -0.263228 -0.000548
vn -0.998302 -0.057670 0.008216
vn -0.000467 0.999961 0.008841
vn -0.003715 0.999970 0.006721
vn -0.000733 1.000000 0.000123
vn -0.131864 0.206143 0.969596
vn 0.034010 -0.387790 0.921120
vn -0.114005 -0.377519 0.918957
vn -0.018549 0.994826 0.099882
vn -0.106718 0.987026 0.119962
vn -0.148011 0.988921 0.011349
vn 0.041078 0.991978 0.119553
vn 0.008267 -0.999545 0.029011
vn -0.002199 -0.999997 0.001470
vn 0.079447 -0.368756 0.926125
vn 0.000913 0.477198 0.878795
vn -0.002539 0.059636 0.998217
vn -0.003058 0.999015 0.044268
vn -0.027743 0.989374 0.142724
vn -0.023421 0.712783 0.700993
vn -0.611867 -0.401502 0.681480
vn -0.888468 0.231688 0.396163
vn -0.800936 -0.425516 0.421233
vn -0.032704 -0.992834 0.114940
vn -0.938534 0.345036 -0.010178
vn -0.882393 0.462103 0.088560
vn 0.020620 0.712770 0.701095
vn 0.021883 0.519396 0.854253
vn -0.041404 -0.220893 0.974419
vn -0.239356 0.174532 0.955116
vn -0.159293 -0.981896 0.102500
vn -0.039732 -0.998967 0.022053
vn -0.008160 -0.992475 0.122173
vn -0.895719 0.280702 0.344811
vn -0.250784 0.521884 0.815319
vn -0.387396 -0.503480 0.772290
vn 0.020632 0.568909 0.822141
vn -0.731987 0.252017 0.632995
vn -0.249300 -0.829433 0.499890
vn 0.000572 -0.501302 0.865272
vn -0.307036 0.782587 0.541559
vn -0.010038 0.835984 -0.548662
vn 0.047565 0.913511 -0.404023
vn -0.123631 0.991840 -0.031131
vn -0.371705 0.456358 -0.808439
vn -0.847303 0.487377 -0.211047
vn 0.886468 -0.462774 0.003808
vn -0.978662 0.202050 -0.037361
vn -0.363422 0.931611 0.005073
vn -0.147525 0.988482 0.033753
vn -0.892103 -0.451828 -0.001915
vn -0.533358 -0.845500 0.025693
vn -0.118542 -0.377293 0.918476
vn -0.945442 -0.303381 0.118743
vn -0.962006 0.268183 -0.051214
vn -0.700109 0.713898 0.014020
vn -0.029101 -0.977733 0.207827
vn -0.249254 -0.968399 -0.008667
vn -0.868505 -0.495491 -0.013734
vn -0.938876 -0.186260 -0.289517
vn -0.238644 -0.400848 -0.884517
vn -0.029430 0.992796 0.116145
vn -0.375822 -0.926566 0.015249
vn -0.009535 -0.999416 -0.032825
vn -0.454021 0.803069 0.385934
vn -0.059999 0.978065 0.199473
vn -0.022984 -0.094464 -0.995263
vn -0.015294 0.055405 -0.998347
vn -0.004664 -0.999082 -0.042573
vn -0.132107 0.300943 0.944447
vn -0.000493 0.999990 -0.004428
vn -0.718725 0.691352 -0.073936
vn -0.696795 0.715369 -0.052203
vn -0.929726 0.326287 0.170723
vn -0.699675 -0.709885 -0.080734
vn -0.014810 0.973869 0.226625
vn -0.017586 0.245651 -0.969199
vn -0.168784 0.041041 0.984798
vn -0.011688 0.977634 -0.209990
vn -0.006924 0.790135 -0.612894
vn -0.045591 0.998889 0.011955
vn -0.002406 0.971978 0.235062
vn 0.888561 -0.353886 0.291934
s 1
g initialShadingGroup Room3_Ground_Bloc4_lp1 Room3_Ground_Bloc4
f 4/1/1 37/143/2 18/146/3
f 70/4/4 60/5/5 27/6/6
f 33/8/7 4/10/1 54/45/8
f 50/9/9 37/2/2 4/142/1
f 28/46/10 54/45/8 26/81/11
f 18/12/3 1/16/12 10/17/13
f 19/13/14 47/14/15 35/15/16
f 33/7/7 50/9/9 4/142/1
f 48/18/17 7/22/18 34/24/19
f 79/19/20 36/20/21 9/21/22
f 32/25/23 48/18/17 63/31/24
f 60/5/5 46/32/25 29/55/26
f 4/10/1 78/124/27 25/125/28
f 74/28/29 61/29/30 91/30/31
f 34/24/19 7/22/18 65/56/32
f 61/57/30 31/62/33 85/63/34
f 45/34/35 83/35/36 51/36/37
f 25/125/28 78/124/27 66/126/38
f 2/38/39 23/39/40 35/15/16
f 29/55/26 43/75/41 94/84/42
f 13/42/43 43/40/41 97/156/44
f 28/46/10 26/81/11 21/127/45
f 59/128/46 54/45/8 14/129/47
f 73/153/48 8/48/49 24/49/50
f 79/19/20 15/50/51 36/20/21
f 87/51/52 24/155/50 39/52/53
f 91/30/31 16/53/54 74/28/29
f 11/54/55 83/35/36 45/34/35
f 77/91/56 44/93/57 17/94/58
f 95/95/59 57/96/60 17/94/58
f 18/146/3 5/60/61 4/1/1
f 74/28/29 16/53/54 78/145/27
f 17/94/58 6/97/62 19/98/14
f 60/5/5 76/99/63 46/32/25
f 17/94/58 20/100/64 70/4/4
f 20/100/64 17/94/58 19/98/14
f 38/64/65 64/65/66 21/44/45
f 69/66/67 21/158/45 13/42/43
f 12/67/68 38/64/65 21/44/45
f 12/67/68 56/68/69 38/64/65
f 23/39/40 19/13/14 35/15/16
f 20/100/64 19/98/14 90/101/70
f 8/48/49 13/42/43 24/49/50
f 21/158/45 24/49/50 13/42/43
f 51/36/37 25/152/28 45/34/35
f 9/21/22 36/20/21 84/70/71
f 21/127/45 26/81/11 24/130/50
f 24/130/50 59/128/46 39/131/53
f 27/6/6 94/84/42 8/102/49
f 48/18/17 8/102/49 63/31/24
f 47/14/15 68/71/72 93/72/73
f 86/73/74 95/58/59 62/141/75
f 55/103/76 29/55/26 94/84/42
f 29/55/26 55/103/76 60/5/5
f 28/46/10 22/132/77 68/133/72
f 28/46/10 72/134/78 54/45/8
f 65/56/32 7/22/18 31/62/33
f 31/62/33 75/104/79 11/105/55
f 48/18/17 32/25/23 7/22/18
f 7/22/18 42/106/80 31/62/33
f 41/79/81 3/80/82 33/7/7
f 30/135/83 33/8/7 54/45/8
f 34/24/19 10/17/13 1/16/12
f 1/11/12 18/146/3 37/143/2
f 35/15/16 47/14/15 93/72/73
f 22/76/77 64/65/66 38/64/65
f 71/82/84 39/52/53 36/20/21
f 36/136/21 14/129/47 84/137/71
f 81/83/85 37/2/2 50/9/9
f 37/107/2 34/24/19 1/16/12
f 38/64/65 35/15/16 22/76/77
f 2/38/39 35/15/16 38/64/65
f 39/131/53 59/128/46 14/129/47
f 39/131/53 14/129/47 36/136/21
f 40/108/86 88/109/87 2/110/39
f 43/159/41 52/86/88 97/43/44
f 41/138/81 33/8/7 30/135/83
f 80/87/89 86/73/74 62/141/75
f 42/106/80 7/22/18 58/111/90
f 58/111/90 15/112/51 42/106/80
f 43/75/41 46/32/25 52/113/88
f 29/55/26 46/32/25 43/75/41
f 92/88/91 3/80/82 41/79/81
f 77/91/56 3/114/82 92/115/91
f 16/53/54 49/89/92 45/34/35
f 66/37/38 78/145/27 16/53/54
f 46/32/25 76/99/63 40/108/86
f 40/108/86 56/116/69 46/32/25
f 6/61/62 47/14/15 19/13/14
f 47/14/15 86/73/74 80/87/89
f 48/18/17 27/6/6 8/102/49
f 27/6/6 48/18/17 81/117/85
f 49/89/92 11/54/55 45/34/35
f 61/29/30 85/33/34 91/30/31
f 50/9/9 33/7/7 3/80/82
f 3/114/82 53/118/93 96/119/94
f 51/150/37 9/21/22 25/27/28
f 79/19/20 9/21/22 51/150/37
f 46/32/25 56/116/69 52/113/88
f 52/86/88 56/68/69 12/67/68
f 96/119/94 53/118/93 81/117/85
f 81/117/85 70/4/4 27/6/6
f 54/45/8 4/10/1 25/125/28
f 84/70/71 25/27/28 9/21/22
f 27/6/6 60/5/5 55/103/76
f 55/103/76 94/84/42 27/6/6
f 40/108/86 2/110/39 56/116/69
f 56/68/69 2/38/39 38/64/65
f 17/94/58 57/96/60 6/97/62
f 6/61/62 86/73/74 47/14/15
f 7/22/18 32/25/23 58/111/90
f 32/25/23 15/112/51 58/111/90
f 54/45/8 59/128/46 26/81/11
f 24/130/50 26/81/11 59/128/46
f 60/5/5 67/120/95 76/99/63
f 70/4/4 67/120/95 60/5/5
f 10/17/13 61/57/30 18/12/3
f 65/56/32 31/62/33 61/57/30
f 92/88/91 41/79/81 62/74/75
f 62/139/75 41/138/81 72/134/78
f 15/50/51 71/82/84 36/20/21
f 89/121/96 15/112/51 32/25/23
f 64/147/66 22/132/77 28/46/10
f 64/147/66 28/46/10 21/127/45
f 34/24/19 65/56/32 10/17/13
f 10/17/13 65/56/32 61/57/30
f 66/37/38 16/53/54 45/34/35
f 45/34/35 25/152/28 66/37/38
f 67/120/95 20/100/64 76/99/63
f 70/4/4 20/100/64 67/120/95
f 30/135/83 54/45/8 72/134/78
f 41/138/81 30/135/83 72/134/78
f 12/67/68 21/44/45 69/157/67
f 97/43/44 52/86/88 12/67/68
f 70/4/4 77/91/56 17/94/58
f 53/118/93 70/4/4 81/117/85
f 71/82/84 87/51/52 39/52/53
f 32/25/23 63/31/24 89/121/96
f 68/133/72 72/134/78 28/46/10
f 47/14/15 80/87/89 68/71/72
f 63/154/24 8/48/49 73/153/48
f 63/31/24 87/122/52 71/123/84
f 18/3/3 61/29/30 74/28/29
f 18/146/3 82/144/97 5/60/61
f 31/62/33 42/106/80 75/104/79
f 42/78/80 15/50/51 79/19/20
f 19/13/14 23/39/40 90/69/70
f 90/69/70 23/39/40 2/38/39
f 3/114/82 77/91/56 53/118/93
f 53/118/93 77/91/56 70/4/4
f 4/10/1 5/148/61 78/124/27
f 5/60/61 82/144/97 78/26/27
f 75/151/79 42/78/80 79/19/20
f 75/151/79 79/19/20 51/150/37
f 62/139/75 72/134/78 80/149/89
f 80/149/89 72/134/78 68/133/72
f 34/24/19 81/117/85 48/18/17
f 37/107/2 81/117/85 34/24/19
f 82/92/97 18/3/3 74/28/29
f 82/92/97 74/28/29 78/145/27
f 75/77/79 51/36/37 83/35/36
f 11/54/55 75/77/79 83/35/36
f 84/137/71 14/129/47 54/45/8
f 84/137/71 54/45/8 25/125/28
f 31/62/33 11/105/55 85/63/34
f 85/33/34 11/54/55 49/89/92
f 57/59/60 86/73/74 6/61/62
f 57/59/60 95/58/59 86/73/74
f 63/23/24 73/47/48 87/51/52
f 87/51/52 73/47/48 24/155/50
f 88/85/87 90/69/70 2/38/39
f 76/99/63 88/109/87 40/108/86
f 89/121/96 63/31/24 71/123/84
f 89/121/96 71/123/84 15/112/51
f 76/99/63 90/101/70 88/109/87
f 20/100/64 90/101/70 76/99/63
f 85/33/34 49/89/92 91/30/31
f 91/30/31 49/89/92 16/53/54
f 44/93/57 77/91/56 92/115/91
f 95/140/59 92/88/91 62/74/75
f 93/72/73 68/71/72 22/76/77
f 35/15/16 93/72/73 22/76/77
f 8/48/49 94/41/42 13/42/43
f 94/41/42 43/40/41 13/42/43
f 95/95/59 44/93/57 92/115/91
f 44/93/57 95/95/59 17/94/58
f 96/90/94 50/9/9 3/80/82
f 96/90/94 81/83/85 50/9/9
f 97/156/44 69/66/67 13/42/43
f 97/43/44 12/67/68 69/157/67
