# This file uses meters as units for non-parametric coordinates.

mtllib Room3_Ground_Bloc3_lp.mtl
g default
v 213.106079 148.351425 474.555634
v -99.897148 72.732254 377.372559
v 298.706757 149.931641 101.214005
v -99.026939 77.033913 -370.070923
v 499.987061 50.002758 799.988342
v -461.871887 63.943939 399.841583
v -4.000967 49.978794 -349.449310
v 294.192200 150.213089 -116.664574
v 0.668062 -149.939911 -799.660156
v -76.773834 148.425720 -21.301252
v -136.074203 50.072552 -29.455875
v -85.361450 148.812805 386.862885
v 56.690262 114.188171 -400.120148
v 499.971497 149.980118 -100.063240
v 300.002502 50.953625 96.723213
v 279.203125 126.619804 -399.242279
v 207.377792 49.952930 -354.624054
v -69.695175 63.504963 -400.229980
v 4.266418 5.042099 -365.995300
v 170.536743 -39.090607 -600.239868
v 0.780668 -44.090439 -578.183655
v 198.447769 -49.022488 -367.513336
v -297.468445 76.942581 -284.288940
v 400.605225 150.141113 100.116348
v 304.505859 50.777435 100.071701
v 298.507050 49.999527 101.588669
v -283.393738 149.462784 -257.246552
v 199.996429 -149.127090 -567.952881
v -96.638794 147.406067 -297.655579
v 176.864044 -49.494736 -615.422058
v -104.169044 71.827896 -300.610291
v 4.177234 -89.556366 -797.341797
v 499.515259 149.974380 -381.919434
v 196.813995 -54.564636 -796.834351
v 499.196655 144.991379 408.305542
v 397.792877 49.999664 402.687927
v 387.117767 148.875717 378.804077
v -260.114716 50.000244 -24.474310
v -127.300880 64.902206 -0.734837
v 399.980713 50.025280 99.997147
v 359.205231 149.177765 -375.376373
v -100.004402 128.067200 16.046068
v -297.067810 133.025925 -29.160553
v 0.050805 31.324881 -430.464111
v -131.953720 113.242912 -0.972080
v -499.989685 50.004589 799.981323
v 300.005829 149.400574 -97.110703
v -100.457680 148.178162 749.909973
v 73.569664 150.454987 -156.521469
v 298.087860 50.000881 -103.792236
v -88.393890 50.031292 414.859283
v 7.214358 146.186966 -381.321716
v 187.978119 68.679604 -399.313080
v -99.822380 78.088310 24.388193
v 300.000702 148.966171 95.824203
v 499.965973 135.805817 -399.671326
v -212.221451 150.204544 -127.936256
v 24.958447 46.729477 -593.688110
v -275.181091 139.225876 -117.230675
v 12.086624 -32.245914 -600.122131
v 53.955120 152.216644 28.572994
v -97.766014 50.007587 -288.757019
v 15.672389 -70.301666 -567.849792
v -44.932045 151.565201 256.303558
v -275.482483 131.200592 -299.155884
v 500.053040 149.303955 799.849060
v 12.835243 -48.899315 -615.832336
v 103.813683 136.500977 -380.204071
v 199.589081 -61.868107 -567.853027
v -145.768524 149.454269 -25.422192
v 14.155252 153.019897 680.792969
v 303.064331 148.940506 99.999458
v 199.418869 -36.229820 -590.364807
v -73.475670 50.068356 12.220759
v 1.301437 -47.573708 -383.831238
v 111.412689 149.021103 -312.038452
v 199.799728 -149.984955 -799.728088
v 499.966064 50.048237 400.027893
v 1.175641 58.675777 -400.349945
v -406.654236 136.801270 400.036560
v -499.962891 50.135750 439.738525
v -271.429077 76.131065 -299.846375
v 13.374290 49.426327 -416.126190
v -289.600159 60.803955 -54.020893
v -229.959869 153.631104 581.821899
v -277.768646 50.242035 -280.256653
v -124.836395 119.852623 398.395996
v -298.258575 133.384827 -264.847504
v 205.216644 50.001736 -399.983154
v 22.120438 -62.525337 -703.440063
v 399.981384 50.569008 394.486603
v 198.201477 31.693813 -507.251343
v -85.317131 50.233494 -374.313080
v 189.505310 148.876312 -99.597313
v 403.784790 50.404148 400.001007
v 0.504848 -149.077911 -591.398865
v -17.589071 49.968685 -389.121460
v -498.631348 150.494110 800.450500
v 20.965298 -149.932938 -567.983582
v 106.783806 12.799950 -599.931458
v -67.032433 134.835739 -392.980011
v -99.555656 95.410385 130.004684
v 499.386047 50.009518 -100.834297
v -281.310822 149.819855 430.439240
v 300.003540 50.907127 -97.017830
v 0.895925 -88.799530 -690.595886
v 398.953308 116.120743 400.772461
v -35.701702 149.312500 112.065468
v -32.092850 133.074570 799.956726
v 183.675415 50.039707 -424.293701
v 17.266470 -51.268368 -758.552185
v -81.106087 149.382843 -369.612244
v 1.492873 -22.875336 -476.654572
v 199.993759 -58.647465 -607.415222
v -116.362083 70.524406 399.757965
v -263.535400 133.552780 -1.180262
v 52.936398 147.234299 797.265869
v 395.529510 149.573624 446.570190
v -499.725311 149.473923 422.635742
v 193.032684 151.036880 318.815063
v -99.148560 121.412895 -370.549438
v -299.800415 116.661667 -167.526657
v -286.755737 50.091194 428.979736
v 243.788071 149.755280 -349.882446
v 200.677032 27.208975 -419.180054
v -276.475311 77.768555 402.014404
v 59.121620 -51.574272 -705.250244
v 197.756927 34.804623 -365.262451
v 196.144730 49.034325 -595.660889
v 304.142334 149.040344 -100.004494
v -113.614464 148.927658 417.888214
v 1.514108 36.129467 -577.104370
v 205.275269 150.189835 133.912292
v 199.841415 -50.165253 -556.967896
v -274.761658 149.808182 -21.543152
v -280.628113 127.668633 400.047302
v 91.134521 47.463474 -578.304688
v -496.611481 115.048119 399.608337
v -99.813896 124.831894 374.873718
v 23.362530 -50.204838 -548.389282
v -297.450195 81.424179 -3.674771
v 165.448868 49.812698 -524.267456
v -456.111206 51.594585 419.557281
v -4.444711 149.697052 583.211975
v 499.965302 50.021885 -399.982056
v -79.154358 131.008698 117.604111
vt 0.189135 0.532313
vt 0.197211 0.599494
vt 0.142353 0.566412
vt 0.260809 0.466186
vt 0.214598 0.464967
vt 0.077900 0.699747
vt 0.172255 0.745172
vt 0.049660 0.702376
vt 0.065821 0.587328
vt 0.217670 0.410376
vt 0.401879 0.486497
vt 0.367494 0.534200
vt 0.086139 0.850564
vt 0.051170 0.027133
vt 0.048940 0.054092
vt 0.726789 0.149045
vt 0.741023 0.146520
vt 0.745332 0.200124
vt 0.741506 0.090539
vt 0.716246 0.326016
vt 0.150261 0.853673
vt 0.156842 0.780635
vt 0.165977 0.854243
vt 0.349165 0.497893
vt 0.037702 0.055610
vt 0.314209 0.457304
vt 0.038054 0.587820
vt 0.066941 0.069827
vt 0.059483 0.112583
vt 0.042087 0.068815
vt 0.383500 0.424415
vt 0.381855 0.454979
vt 0.144909 0.777584
vt 0.452020 0.431009
vt 0.445525 0.470589
vt 0.327821 0.539958
vt 0.364463 0.703203
vt 0.322031 0.692703
vt 0.064917 0.252511
vt 0.370251 0.689358
vt 0.279899 0.689907
vt 0.327915 0.526328
vt 0.141987 0.856977
vt 0.062575 0.325077
vt 0.061370 0.247798
vt 0.060049 0.373731
vt 0.034245 0.374594
vt 0.037162 0.324300
vt 0.061780 0.183875
vt 0.558956 0.552949
vt 0.533916 0.498291
vt 0.533093 0.487853
vt 0.043912 0.154727
vt 0.065374 0.457983
vt 0.062345 0.428209
vt 0.062953 0.426592
vt 0.707231 0.470431
vt 0.033445 0.458802
vt 0.714774 0.453937
vt 0.529358 0.501243
vt 0.540151 0.484116
vt 0.061830 0.426632
vt 0.528692 0.452502
vt 0.701334 0.470958
vt 0.531568 0.479754
vt 0.696843 0.464477
vt 0.680717 0.450929
vt 0.519099 0.460028
vt 0.506315 0.508589
vt 0.492361 0.453181
vt 0.493531 0.442696
vt 0.613969 0.512000
vt 0.638849 0.493649
vt 0.638129 0.453311
vt 0.602793 0.486698
vt 0.598307 0.483502
vt 0.657329 0.444517
vt 0.529029 0.562916
vt 0.437496 0.717724
vt 0.283478 0.671718
vt 0.426809 0.737359
vt 0.244773 0.202262
vt 0.034148 0.427214
vt 0.060234 0.375138
vt 0.034721 0.413262
vt 0.034098 0.429545
vt 0.033217 0.428226
vt 0.080810 0.031769
vt 0.068410 0.549636
vt 0.057051 0.557067
vt 0.401586 0.588719
vt 0.074122 0.984623
vt 0.488347 0.450360
vt 0.521439 0.390454
vt 0.033251 0.373228
vt 0.075915 0.062495
vt 0.441917 0.585762
vt 0.499924 0.334934
vt 0.649161 0.452540
vt 0.542547 0.274032
vt 0.591522 0.487512
vt 0.064446 0.057011
vt 0.038086 0.247269
vt 0.413377 0.674946
vt 0.148314 0.737881
vt 0.406918 0.661423
vt 0.160847 0.749076
vt 0.416801 0.597313
vt 0.146289 0.748786
vt 0.381570 0.699654
vt 0.286383 0.533574
vt 0.752259 0.148977
vt 0.716225 0.150163
vt 0.718056 0.207502
vt 0.038689 0.160783
vt 0.042686 0.021505
vt 0.735715 0.099435
vt 0.068923 0.127999
vt 0.524226 0.485348
vt 0.652770 0.480653
vt 0.627833 0.486946
vt 0.642647 0.457899
vt 0.656803 0.473083
vt 0.249706 0.549613
vt 0.452211 0.356552
vt 0.072672 0.095957
vt 0.725506 0.182852
vt 0.747551 0.216699
vt 0.730174 0.204871
vt 0.290309 0.675557
vt 0.357586 0.681044
vt 0.144324 0.868256
vt 0.721653 0.104559
vt 0.035746 0.555980
vt 0.034902 0.558179
vt 0.750972 0.200586
vt 0.371569 0.366234
vt 0.618980 0.340260
vt 0.579957 0.378853
vt 0.590937 0.329920
vt 0.641214 0.334973
vt 0.630882 0.364527
vt 0.402635 0.569873
vt 0.447893 0.531172
vt 0.465823 0.470535
vt 0.468841 0.498555
vt 0.619523 0.249343
vt 0.646230 0.257927
vt 0.617096 0.294065
vt 0.466769 0.419067
vt 0.615620 0.229019
vt 0.573409 0.263558
vt 0.318599 0.399712
vt 0.321002 0.429378
vt 0.237821 0.411082
vt 0.234477 0.408546
vt 0.226096 0.378592
vt 0.110220 0.389374
vt 0.455130 0.396968
vt 0.458758 0.355718
vt 0.371042 0.554205
vt 0.357072 0.543083
vt 0.244242 0.609425
vt 0.254621 0.674770
vt 0.141223 0.688025
vt 0.377683 0.423693
vt 0.322959 0.433719
vt 0.378305 0.422340
vt 0.468192 0.524456
vt 0.358400 0.552656
vt 0.367226 0.588324
vt 0.374708 0.590003
vt 0.376858 0.597449
vt 0.454813 0.582696
vt 0.445083 0.591500
vt 0.159486 0.529800
vt 0.123731 0.521661
vt 0.574021 0.381415
vt 0.582157 0.326995
vt 0.241752 0.559002
vt 0.124336 0.547623
vt 0.626391 0.239760
vt 0.631994 0.384479
vt 0.357761 0.062156
vt 0.474160 0.030538
vt 0.363248 0.205022
vt 0.478055 0.324445
vt 0.156218 0.210403
vt 0.269680 0.092504
vt 0.138037 0.183006
vt 0.135796 0.120800
vt 0.209293 0.093311
vt 0.122455 0.121582
vt 0.209548 0.034071
vt 0.121530 0.034836
vt 0.591152 0.103451
vt 0.574034 0.054388
vt 0.627589 0.039002
vt 0.639411 0.095969
vt 0.159171 0.263361
vt 0.232794 0.220948
vt 0.599531 0.131381
vt 0.666414 0.144541
vt 0.656195 0.196193
vt 0.130980 0.207004
vt 0.234424 0.257526
vt 0.242395 0.218626
vt 0.268816 0.062692
vt 0.126408 0.187122
vt 0.368194 0.263239
vt 0.356572 0.032128
vt 0.122236 0.202747
vt 0.588194 0.188838
vt 0.648272 0.200767
vt 0.366072 0.313026
vt 0.372203 0.325829
vt 0.583969 0.108057
vt 0.152890 0.863428
vt 0.710750 0.103585
vt 0.164862 0.862603
vt 0.036060 0.558954
vt 0.292053 0.665853
vt 0.174136 0.864932
vt 0.036171 0.087626
vt 0.685914 0.318089
vt 0.161017 0.737882
vt 0.369807 0.673960
vt 0.292092 0.693087
vt 0.102448 0.981814
vt 0.713979 0.469681
vt 0.088189 0.826195
vt 0.068122 0.572525
vt 0.528577 0.327566
vt 0.535993 0.327906
vt 0.648920 0.442904
vt 0.588544 0.498656
vt 0.525504 0.338480
vt 0.530231 0.337447
vt 0.596902 0.493658
vt 0.516681 0.434777
vt 0.544167 0.555885
vt 0.707123 0.439438
vt 0.724574 0.463909
vt 0.497861 0.388690
vt 0.515159 0.266657
vt 0.532802 0.040037
vt 0.519589 0.073032
vt 0.501891 0.043800
vt 0.529381 0.077197
vt 0.501149 0.104914
vt 0.501453 0.034732
vt 0.530920 0.093617
vt 0.518788 0.104544
vt 0.524891 0.035031
vt 0.656129 0.263905
vt 0.538469 0.168437
vt 0.535066 0.228741
vt 0.520985 0.171749
vt 0.562097 0.221126
vt 0.554818 0.167599
vt 0.041289 0.094145
vt 0.482329 0.738016
vt 0.477130 0.753401
vt 0.438655 0.710275
vt 0.487837 0.729996
vn 0.003360 0.999984 -0.004456
vn 0.000780 1.000000 -0.000447
vn 0.014110 0.995752 0.090988
vn 0.002557 0.999988 0.004254
vn -0.002119 0.999984 -0.005301
vn 0.013611 0.999759 -0.017255
vn -0.030479 -0.999534 0.001600
vn -0.000017 -1.000000 -0.000001
vn 0.155284 -0.962216 0.223668
vn 0.000102 0.999981 -0.006126
vn -0.028265 0.999311 0.024061
vn -0.002970 0.999993 0.002078
vn 0.289167 0.879532 0.377897
vn 0.763621 0.622435 -0.171632
vn -0.003904 0.098056 0.995173
vn 0.002240 0.318823 -0.947812
vn 0.001736 -0.337178 -0.941439
vn -0.118104 -0.331878 -0.935900
vn -0.004490 -0.999986 -0.002873
vn -0.162609 -0.962223 0.218369
vn -0.959623 0.260958 -0.105004
vn -0.967686 0.252035 -0.007846
vn -0.961944 -0.267961 -0.053487
vn 0.003049 0.999995 -0.001244
vn -0.001985 0.999998 -0.000645
vn 0.002825 0.999995 0.001697
vn -0.386036 -0.117853 -0.914925
vn -0.962862 -0.099379 -0.251038
vn -0.255064 -0.957650 -0.133597
vn 0.668923 -0.727305 -0.153524
vn -0.006011 0.996233 -0.086505
vn -0.002949 0.999534 -0.030380
vn -0.647870 0.761431 0.022083
vn -0.067762 0.997688 0.005124
vn -0.340696 0.939984 -0.018861
vn -0.107663 0.991160 -0.077526
vn -0.986906 0.160053 0.019982
vn -0.009931 -0.999699 -0.022441
vn 0.000063 -1.000000 0.000003
vn -0.949746 0.290939 0.115490
vn -0.693569 -0.228219 0.683285
vn -0.048448 0.998734 -0.013555
vn -0.166674 0.985803 -0.020323
vn -0.161480 0.302380 -0.939410
vn 0.006574 0.167309 -0.985883
vn -0.189426 -0.111923 -0.975495
vn 0.128212 0.990684 -0.045901
vn 0.447189 0.842886 0.299275
vn 0.809316 0.083313 -0.581435
vn -0.010513 -0.997033 0.076258
vn 0.008617 -0.999463 0.031597
vn 0.000222 -1.000000 0.000841
vn 0.033070 -0.972608 -0.230087
vn 0.361907 -0.900516 0.241027
vn 0.025821 0.226321 0.973710
vn 0.714100 -0.060751 0.697403
vn -0.015054 0.261079 -0.965200
vn -0.191261 0.090999 -0.977312
vn 0.272994 -0.938835 -0.209912
vn -0.304315 -0.272993 0.912616
vn 0.241925 -0.207207 0.947912
vn 0.011839 0.177687 -0.984016
vn -0.259066 -0.912117 -0.317691
vn 0.076300 0.997079 0.003482
vn -0.112635 0.979832 -0.165051
vn 0.115437 0.978488 -0.170983
vn -0.989475 0.144052 0.013722
vn -0.986799 -0.158962 -0.030977
vn 0.975630 0.219417 -0.001325
vn 0.231800 -0.877170 0.420524
vn 0.385525 -0.920123 0.068873
vn 0.946966 0.052497 -0.317016
vn 0.506811 0.747380 -0.429610
vn -0.009580 0.986315 -0.164591
vn -0.034689 0.974944 -0.219728
vn 0.067042 0.279348 -0.957847
vn 0.073090 0.994590 -0.073815
vn -0.068138 -0.990741 0.117426
vn -0.200616 -0.939934 0.276182
vn -0.144461 0.486867 -0.861448
vn -0.080001 -0.229157 -0.970096
vn -0.137894 -0.986432 -0.089095
vn -0.003568 -0.999310 0.036965
vn 0.702486 0.673523 -0.229955
vn 0.041131 0.022674 -0.998897
vn 0.002378 0.999994 0.002396
vn 0.668269 -0.710451 -0.220624
vn 0.999453 0.029240 -0.015425
vn 0.999313 -0.028968 -0.023111
vn 0.994001 0.107514 0.020088
vn 0.030846 -0.027867 -0.999136
vn -0.021278 0.999774 -0.000167
vn -0.058139 0.982733 -0.175657
vn 0.261042 -0.114809 0.958476
vn -0.092978 -0.154049 0.983679
vn -0.042574 -0.938081 0.343790
vn 0.001803 0.901318 -0.433155
vn 0.043741 0.931580 -0.360895
vn -0.058733 0.998198 -0.012272
vn 0.424733 -0.842990 -0.330106
vn 0.320422 -0.886080 0.334952
vn -0.395324 0.303148 -0.867075
vn -0.182628 -0.948776 -0.257820
vn -0.999396 -0.031450 0.014818
vn -0.992239 0.120450 -0.030873
vn -0.907384 -0.402157 0.122164
vn -0.201868 0.949431 -0.240479
vn 0.531490 0.704362 -0.470524
vn 0.990034 0.137883 -0.028645
vn 0.279137 0.960240 0.004620
vn 0.895365 0.235926 -0.377704
vn -0.063913 -0.983867 0.167096
vn -0.114026 0.171665 0.978534
vn -0.158379 -0.391702 0.906359
vn -0.854810 -0.511277 0.088856
vn -0.010240 0.993444 -0.113862
vn -0.739928 0.602786 0.298591
vn -0.075057 0.269779 0.959993
vn 0.011489 0.966542 0.256251
vn 0.001348 -0.998286 -0.058515
vn -0.003754 0.998062 -0.062121
vn -0.379409 0.924449 -0.037984
vn -0.414878 0.747962 0.518101
vn -0.133446 0.987866 -0.079456
vn -0.128874 -0.419774 -0.898433
vn -0.922914 0.176246 -0.342298
vn 0.997684 0.060798 -0.030493
vn -0.138231 0.862604 -0.486628
vn -0.015783 0.147979 -0.988865
vn -0.252479 0.265550 -0.930450
vn -0.899109 0.408642 -0.156887
vn -0.135037 0.983455 0.120755
vn -0.560791 0.826885 -0.042124
vn -0.967859 0.216350 -0.128227
vn -0.004456 0.999956 0.008198
vn -0.008298 0.978810 0.204602
vn 0.003407 0.444783 -0.895632
vn -0.456333 -0.889600 -0.019284
vn -0.505211 0.109240 -0.856054
vn -0.934842 -0.316015 -0.161881
vn -0.689544 -0.723529 0.032158
vn -0.008860 0.995829 -0.090804
vn -0.120260 0.239307 -0.963468
vn 0.999126 -0.040216 -0.011416
vn 0.050500 -0.054408 -0.997241
vn -0.013787 -0.953765 -0.300239
s 1
g initialShadingGroup Room3_Ground_Bloc3_lp1 Room3_Ground_Bloc3
f 144/1/1 85/2/2 48/3/3
f 120/4/4 1/5/5 118/10/6
f 74/82/7 36/184/8 5/185/9
f 49/11/10 10/12/11 61/24/12
f 66/6/13 5/8/9 35/9/14
f 66/6/13 109/13/15 5/8/9
f 136/16/16 126/17/17 6/18/18
f 51/186/19 5/185/9 46/187/20
f 74/82/7 5/185/9 51/186/19
f 139/21/21 102/22/22 2/23/23
f 133/26/24 8/31/25 94/32/26
f 31/14/27 4/15/28 93/25/29
f 35/9/14 5/8/9 78/27/30
f 124/34/31 76/35/32 8/31/25
f 10/12/11 146/36/33 108/42/34
f 59/91/35 27/97/36 122/108/37
f 62/188/38 26/189/39 74/82/7
f 43/37/40 122/38/37 141/40/41
f 64/111/42 146/36/33 12/124/43
f 64/111/42 12/124/43 144/1/1
f 101/28/44 13/29/45 18/30/46
f 33/125/47 8/31/25 14/137/48
f 33/39/47 14/44/48 56/45/49
f 7/190/50 17/191/51 50/192/52
f 50/192/52 89/193/53 103/194/54
f 130/46/55 105/47/56 103/48/54
f 13/29/45 16/49/57 79/261/58
f 89/193/53 145/195/59 103/194/54
f 7/50/50 19/241/60 128/60/61
f 16/49/57 53/53/62 79/261/58
f 97/230/63 19/59/60 7/243/50
f 142/138/64 83/139/65 110/140/66
f 19/59/60 44/66/67 113/67/68
f 92/68/69 22/69/70 134/70/71
f 73/71/72 129/240/73 92/68/69
f 129/141/73 137/142/74 83/139/65
f 67/74/75 20/75/76 30/76/77
f 140/196/78 134/197/71 22/198/70
f 140/196/78 22/198/70 75/199/79
f 22/69/70 128/60/61 19/241/60
f 65/263/80 31/79/27 82/262/81
f 86/200/82 62/188/38 11/201/83
f 24/54/84 72/55/85 3/56/86
f 72/55/85 24/54/84 40/58/87
f 55/62/88 15/83/89 47/84/90
f 55/62/88 8/85/25 3/56/86
f 15/83/89 25/86/91 26/87/39
f 7/190/50 50/192/52 26/189/39
f 57/143/92 29/144/93 27/97/36
f 65/263/80 29/81/93 31/79/27
f 20/75/76 73/239/72 30/76/77
f 69/237/94 63/94/95 99/244/96
f 29/88/93 4/15/28 31/14/27
f 68/145/97 52/146/98 76/35/32
f 127/147/99 67/148/75 30/149/77
f 77/202/100 28/203/101 99/204/96
f 7/190/50 26/189/39 62/188/38
f 93/205/29 7/190/50 62/188/38
f 32/256/102 77/257/100 9/258/103
f 21/246/104 106/247/105 96/248/106
f 68/145/97 76/35/32 124/34/31
f 16/150/57 68/145/97 124/34/31
f 111/151/107 30/149/77 34/152/108
f 114/233/109 34/100/108 30/234/77
f 24/153/84 3/154/86 37/155/110
f 24/54/84 37/89/110 107/90/111
f 74/82/7 26/189/39 36/184/8
f 40/58/87 24/54/84 107/90/111
f 107/156/111 118/10/6 35/157/14
f 35/157/14 118/10/6 66/158/13
f 86/200/82 11/201/83 38/206/112
f 45/104/113 141/40/41 39/106/114
f 38/206/112 11/201/83 39/207/114
f 51/223/19 54/107/115 74/7/7
f 25/86/91 40/58/87 26/87/39
f 26/189/39 40/208/87 36/184/8
f 33/125/47 41/159/116 8/31/25
f 41/159/116 33/125/47 56/160/49
f 45/105/113 39/226/114 42/109/117
f 2/23/23 102/22/22 54/107/115
f 45/104/113 116/110/118 141/40/41
f 57/143/92 27/97/36 59/91/35
f 18/30/46 13/29/45 79/261/58
f 93/205/29 97/209/63 7/190/50
f 57/143/92 10/12/11 49/11/10
f 10/12/11 70/161/119 42/162/117
f 123/210/120 51/186/19 46/187/20
f 104/163/121 119/164/122 98/165/123
f 47/166/90 8/31/25 55/167/88
f 14/137/48 8/31/25 130/168/55
f 109/13/15 46/92/20 5/8/9
f 98/225/123 119/114/122 46/20/20
f 76/35/32 112/169/124 29/144/93
f 76/35/32 29/144/93 57/143/92
f 50/95/52 15/83/89 26/87/39
f 47/84/90 15/83/89 105/47/56
f 2/23/23 54/107/115 51/223/19
f 115/117/125 51/19/19 123/112/120
f 29/88/93 112/96/124 121/102/126
f 121/102/126 101/28/44 18/30/46
f 89/193/53 50/192/52 17/191/51
f 125/119/127 128/60/61 22/69/70
f 42/109/117 39/226/114 54/107/115
f 54/107/115 39/226/114 74/7/7
f 25/86/91 72/55/85 40/58/87
f 15/83/89 72/55/85 25/86/91
f 16/150/57 41/159/116 56/160/49
f 16/49/57 145/103/59 89/115/53
f 45/170/113 70/161/119 116/171/118
f 42/162/117 70/161/119 45/170/113
f 58/120/128 100/121/129 60/122/130
f 44/66/67 132/123/131 113/67/68
f 59/91/35 135/172/132 57/143/92
f 59/91/35 122/108/37 43/173/40
f 21/99/104 132/123/131 60/122/130
f 67/148/75 90/182/133 21/255/104
f 94/32/26 61/24/12 133/26/24
f 133/26/24 120/4/4 37/155/110
f 31/14/27 93/25/29 62/116/38
f 31/79/27 62/264/38 82/262/81
f 63/254/95 21/246/104 99/251/96
f 75/242/79 113/67/68 140/77/78
f 108/42/34 146/36/33 64/111/42
f 133/26/24 108/42/34 120/4/4
f 29/144/93 65/174/80 27/97/36
f 65/174/80 88/175/134 27/97/36
f 66/158/13 71/176/135 117/177/136
f 66/158/13 118/10/6 71/176/135
f 20/75/76 67/74/75 60/122/130
f 60/122/130 67/74/75 21/99/104
f 68/118/97 16/49/57 13/29/45
f 13/29/45 52/126/98 68/118/97
f 69/237/94 99/244/96 28/98/101
f 34/100/108 114/233/109 28/98/101
f 57/143/92 135/172/132 70/161/119
f 57/143/92 70/161/119 10/12/11
f 118/10/6 1/5/5 71/176/135
f 144/1/1 48/3/3 71/176/135
f 72/55/85 55/62/88 3/56/86
f 55/62/88 72/55/85 15/83/89
f 73/71/72 92/68/69 134/70/71
f 114/233/109 69/237/94 28/98/101
f 62/188/38 74/82/7 11/201/83
f 11/201/83 74/82/7 39/207/114
f 22/69/70 19/241/60 75/78/79
f 19/59/60 113/67/68 75/242/79
f 76/35/32 57/143/92 49/11/10
f 49/11/10 8/31/25 76/35/32
f 32/256/102 34/259/108 77/257/100
f 34/100/108 28/98/101 77/245/100
f 35/9/14 78/27/30 107/90/111
f 5/185/9 36/184/8 78/211/30
f 83/139/65 79/178/58 53/179/62
f 79/57/58 44/66/67 19/59/60
f 136/16/16 6/18/18 80/127/137
f 46/20/20 119/114/122 81/128/138
f 81/128/138 138/129/139 6/18/18
f 6/18/18 126/17/17 123/112/120
f 65/41/80 82/80/81 23/130/140
f 84/131/141 23/130/140 86/222/82
f 79/57/58 83/64/65 44/66/67
f 83/64/65 132/123/131 44/66/67
f 84/131/141 86/222/82 38/227/112
f 39/106/114 141/40/41 38/227/112
f 80/127/137 104/113/121 136/16/16
f 131/180/142 104/163/121 144/1/1
f 82/262/81 62/264/38 86/265/82
f 23/130/140 82/80/81 86/222/82
f 139/21/21 2/23/23 87/218/143
f 136/16/16 104/113/121 131/219/142
f 88/228/134 65/41/80 23/130/140
f 141/40/41 122/38/37 23/130/140
f 16/49/57 89/115/53 53/53/62
f 110/140/66 83/139/65 53/179/62
f 21/246/104 90/249/133 106/247/105
f 34/259/108 32/256/102 111/260/107
f 40/58/87 91/134/144 36/135/8
f 95/221/145 78/27/30 36/135/8
f 125/119/127 89/52/53 17/51/51
f 53/61/62 89/52/53 110/65/66
f 4/15/28 18/30/46 93/25/29
f 18/212/46 97/209/63 93/205/29
f 94/32/26 49/11/10 61/24/12
f 8/31/25 49/11/10 94/32/26
f 91/134/144 95/221/145 36/135/8
f 107/90/111 91/134/144 40/58/87
f 106/247/105 9/250/103 96/248/106
f 77/202/100 99/204/96 9/213/103
f 18/30/46 79/261/58 97/224/63
f 97/230/63 79/57/58 19/59/60
f 85/2/2 98/165/123 48/3/3
f 109/13/15 98/229/123 46/92/20
f 21/246/104 96/248/106 99/251/96
f 9/213/103 99/204/96 96/214/106
f 60/122/130 100/121/129 20/75/76
f 129/72/73 73/239/72 20/75/76
f 112/96/124 101/28/44 121/102/126
f 101/28/44 52/126/98 13/29/45
f 102/22/22 42/109/117 54/107/115
f 10/12/11 42/162/117 146/36/33
f 103/48/54 56/45/49 14/44/48
f 130/46/55 103/48/54 14/44/48
f 104/163/121 98/165/123 85/2/2
f 144/1/1 104/163/121 85/2/2
f 50/95/52 103/48/54 105/47/56
f 50/95/52 105/47/56 15/83/89
f 111/252/107 32/253/102 106/247/105
f 32/253/102 9/250/103 106/247/105
f 91/134/144 107/90/111 95/221/145
f 107/90/111 78/27/30 95/221/145
f 61/24/12 108/42/34 133/26/24
f 61/24/12 10/12/11 108/42/34
f 48/3/3 98/165/123 109/181/15
f 71/176/135 48/3/3 117/177/136
f 110/65/66 89/52/53 125/119/127
f 142/63/64 110/65/66 92/68/69
f 90/249/133 111/252/107 106/247/105
f 127/147/99 30/149/77 111/151/107
f 52/146/98 112/169/124 76/35/32
f 101/28/44 112/96/124 52/126/98
f 21/99/104 140/77/78 113/67/68
f 113/67/68 132/123/131 21/99/104
f 114/101/109 30/76/77 73/239/72
f 73/239/72 69/236/94 114/101/109
f 115/220/125 2/23/23 51/223/19
f 87/218/143 2/23/23 115/220/125
f 70/161/119 135/172/132 116/171/118
f 116/110/118 43/37/40 141/40/41
f 66/6/13 117/231/136 109/13/15
f 117/177/136 48/3/3 109/181/15
f 37/155/110 120/4/4 118/10/6
f 107/90/111 37/89/110 118/232/6
f 104/113/121 80/127/137 119/114/122
f 119/114/122 138/129/139 81/128/138
f 108/42/34 64/111/42 120/4/4
f 120/4/4 64/111/42 1/5/5
f 121/102/126 18/30/46 4/15/28
f 29/88/93 121/102/126 4/15/28
f 122/38/37 88/228/134 23/130/140
f 27/97/36 88/175/134 122/108/37
f 143/215/146 123/210/120 81/216/138
f 81/216/138 123/210/120 46/187/20
f 16/150/57 124/34/31 41/159/116
f 41/159/116 124/34/31 8/31/25
f 125/119/127 22/69/70 92/68/69
f 110/65/66 125/119/127 92/68/69
f 126/17/17 136/16/16 115/117/125
f 126/17/17 115/117/125 123/112/120
f 127/147/99 111/151/107 90/182/133
f 127/147/99 90/182/133 67/148/75
f 17/51/51 128/60/61 125/119/127
f 128/60/61 17/51/51 7/50/50
f 100/121/129 129/72/73 20/75/76
f 137/73/74 129/72/73 100/121/129
f 130/46/55 47/84/90 105/47/56
f 8/31/25 47/166/90 130/168/55
f 12/124/43 131/180/142 144/1/1
f 131/132/142 139/21/21 87/218/143
f 83/64/65 58/120/128 132/123/131
f 58/120/128 60/122/130 132/123/131
f 3/154/86 133/26/24 37/155/110
f 3/154/86 8/31/25 133/26/24
f 69/237/94 134/238/71 63/94/95
f 69/93/94 73/71/72 134/70/71
f 135/172/132 59/91/35 43/173/40
f 43/173/40 116/171/118 135/172/132
f 136/16/16 87/133/143 115/117/125
f 136/16/16 131/219/142 87/133/143
f 137/73/74 100/121/129 58/120/128
f 83/139/65 137/142/74 58/183/128
f 119/114/122 80/127/137 138/129/139
f 138/129/139 80/127/137 6/18/18
f 12/43/43 146/33/33 139/21/21
f 12/43/43 139/21/21 131/132/142
f 140/196/78 63/217/95 134/197/71
f 140/77/78 21/99/104 63/235/95
f 141/40/41 23/130/140 84/131/141
f 84/131/141 38/227/112 141/40/41
f 142/138/64 129/141/73 83/139/65
f 129/240/73 142/63/64 92/68/69
f 143/136/146 6/18/18 123/112/120
f 81/128/138 6/18/18 143/136/146
f 1/5/5 64/111/42 144/1/1
f 1/5/5 144/1/1 71/176/135
f 16/49/57 56/45/49 145/103/59
f 56/45/49 103/48/54 145/103/59
f 146/33/33 42/109/117 102/22/22
f 146/33/33 102/22/22 139/21/21
